<svg xmlns="http://www.w3.org/2000/svg" xmlns:osb="http://www.openswatchbook.org/uri/2009/osb" xmlns:svg="http://www.w3.org/2000/svg" xmlns:xlink="http://www.w3.org/1999/xlink" id="svg2" width="300" height="400" version="1.1" viewBox="0 0 300 400"><defs id="defs4"><linearGradient id="linearGradient10055" osb:paint="solid"><stop style="stop-color:#000;stop-opacity:1" id="stop10057" offset="0"/></linearGradient><marker id="Arrow1Lstart" orient="auto" refX="0" refY="0" style="overflow:visible"><path id="path4978" d="M 0,0 5,-5 -12.5,0 5,5 0,0 Z" style="fill:#000;fill-opacity:1;fill-rule:evenodd;stroke:#ff5c00;stroke-width:1pt;stroke-opacity:1" transform="matrix(0.8,0,0,0.8,10,0)"/></marker><clipPath id="clipPath4243" clipPathUnits="userSpaceOnUse"><circle style="opacity:1;fill:#000;fill-opacity:.29670332;fill-rule:nonzero;stroke:#000;stroke-width:19.13299942;stroke-linecap:butt;stroke-linejoin:round;stroke-miterlimit:4;stroke-dasharray:none;stroke-dashoffset:0;stroke-opacity:1" id="circle4245" cx="-264.66" cy="-198.207" r="293.954"/></clipPath><clipPath id="clipPath7847" clipPathUnits="userSpaceOnUse"><ellipse style="opacity:1;fill:#822600;fill-opacity:1;fill-rule:nonzero;stroke:none;stroke-width:12;stroke-linecap:round;stroke-linejoin:round;stroke-miterlimit:4;stroke-dasharray:none;stroke-dashoffset:0;stroke-opacity:1" id="ellipse7849" cx="394" cy="552.362" rx="349.495" ry="216"/></clipPath><clipPath id="clipPath4243-1" clipPathUnits="userSpaceOnUse"><circle style="opacity:1;fill:#000;fill-opacity:.29670332;fill-rule:nonzero;stroke:#000;stroke-width:19.13299942;stroke-linecap:butt;stroke-linejoin:round;stroke-miterlimit:4;stroke-dasharray:none;stroke-dashoffset:0;stroke-opacity:1" id="circle4245-4" cx="-264.66" cy="-198.207" r="293.954"/></clipPath><clipPath id="clipPath7876" clipPathUnits="userSpaceOnUse"><circle style="opacity:1;fill:#000;fill-opacity:.29670332;fill-rule:nonzero;stroke:#000;stroke-width:19.13299942;stroke-linecap:butt;stroke-linejoin:round;stroke-miterlimit:4;stroke-dasharray:none;stroke-dashoffset:0;stroke-opacity:1" id="circle7878" cx="-264.66" cy="-198.207" r="293.954"/></clipPath><clipPath id="clipPath14693" clipPathUnits="userSpaceOnUse"><rect style="opacity:1;fill:#a53c3c;fill-opacity:1;fill-rule:nonzero;stroke:none;stroke-width:8;stroke-linecap:round;stroke-linejoin:round;stroke-miterlimit:4;stroke-dasharray:none;stroke-dashoffset:0;stroke-opacity:1" id="rect14695" width="131.784" height="168.821" x="-332.596" y="383.498" rx="1.255" ry="3.751" transform="matrix(0.99939083,-0.03489951,0.03489951,0.99939083,0,0)"/></clipPath><clipPath id="clipPath14952" clipPathUnits="userSpaceOnUse"><ellipse style="opacity:1;fill:#a53c3c;fill-opacity:1;fill-rule:nonzero;stroke:none;stroke-width:7;stroke-linecap:round;stroke-linejoin:round;stroke-miterlimit:4;stroke-dasharray:none;stroke-dashoffset:0;stroke-opacity:1" id="ellipse14954" cx="-271.344" cy="647.256" rx="69.057" ry="116.911" transform="matrix(0.99939083,-0.03489951,0.03489951,0.99939083,0,0)"/></clipPath></defs><metadata id="metadata7"/><g id="layer1" transform="translate(0,-652.36216)"><g id="g6641" transform="matrix(0.89332354,0,0,0.89332354,-207.38654,341.03071)"><circle id="path5446" cx="400" cy="572.362" r="160" style="opacity:1;fill:#fff;fill-opacity:1;fill-rule:nonzero;stroke:#000;stroke-width:10.03299999;stroke-linecap:butt;stroke-linejoin:round;stroke-miterlimit:4;stroke-dasharray:none;stroke-dashoffset:0;stroke-opacity:1"/><circle id="path5448" cx="400" cy="572.362" r="145" style="opacity:1;fill:#000037;fill-opacity:1;fill-rule:nonzero;stroke:#000037;stroke-width:10.03299999;stroke-linecap:butt;stroke-linejoin:round;stroke-miterlimit:4;stroke-dasharray:none;stroke-dashoffset:0;stroke-opacity:1"/><g id="g5971" transform="translate(0.35355339,0)"><path style="fill:none;fill-rule:evenodd;stroke:#fff;stroke-width:8.95532227;stroke-linecap:round;stroke-linejoin:miter;stroke-miterlimit:4;stroke-dasharray:none;stroke-opacity:1" id="path5460" d="m 392.32741,496.48087 c -8.27246,-82.93549 24.08267,-82.93853 15.28731,0"/><g id="g5914" transform="translate(-31,-64.5)"><use id="use5880" width="100%" height="100%" x="0" y="0" transform="matrix(0.93969262,0.34202014,-0.34202014,0.93969262,250.39181,-36.968234)" xlink:href="#path5460"/><use id="use5882" width="100%" height="100%" x="0" y="0" transform="matrix(0.76604444,0.64278761,-0.64278761,0.76604444,491.62428,-58.031527)" xlink:href="#path5460"/><use id="use5884" width="100%" height="100%" x="0" y="0" transform="matrix(0.5,0.8660254,-0.8660254,0.5,725.51269,4.6818112)" xlink:href="#path5460"/><use id="use5886" width="100%" height="100%" x="0" y="0" transform="matrix(0.17364818,0.98480775,-0.98480775,0.17364818,923.8467,143.6076)" xlink:href="#path5460"/><use id="use5888" width="100%" height="100%" x="0" y="0" transform="matrix(-0.17364818,0.98480775,-0.98480775,-0.17364818,1062.7042,341.98942)" xlink:href="#path5460"/><use id="use5890" width="100%" height="100%" x="0" y="0" transform="matrix(-0.5,0.8660254,-0.8660254,-0.5,1125.3371,575.89941)" xlink:href="#path5460"/><use id="use5892" width="100%" height="100%" x="0" y="0" transform="matrix(-0.76604444,0.64278761,-0.64278761,-0.76604444,1104.1907,817.1246)" xlink:href="#path5460"/><use id="use5894" width="100%" height="100%" x="0" y="0" transform="matrix(-0.93969262,0.34202014,-0.34202014,-0.93969262,1001.8161,1036.5696)" xlink:href="#path5460"/><use id="use5896" width="100%" height="100%" x="0" y="0" transform="matrix(-1,0,0,-1,830.56043,1207.7663)" xlink:href="#path5460"/><use id="use5898" width="100%" height="100%" x="0" y="0" transform="matrix(-0.93969262,-0.34202014,0.34202014,-0.93969262,611.08014,1310.0656)" xlink:href="#path5460"/><use id="use5900" width="100%" height="100%" x="0" y="0" transform="matrix(-0.76604444,-0.64278761,0.64278761,-0.76604444,369.84767,1331.1292)" xlink:href="#path5460"/><use id="use5902" width="100%" height="100%" x="0" y="0" transform="matrix(-0.5,-0.8660254,0.8660254,-0.5,135.95926,1268.4156)" xlink:href="#path5460"/><use id="use5904" width="100%" height="100%" x="0" y="0" transform="matrix(-0.17364818,-0.98480775,0.98480775,-0.17364818,-62.374757,1129.4899)" xlink:href="#path5460"/><use id="use5906" width="100%" height="100%" x="0" y="0" transform="matrix(0.17364818,-0.98480775,0.98480775,0.17364818,-201.23234,931.10806)" xlink:href="#path5460"/><use id="use5908" width="100%" height="100%" x="0" y="0" transform="matrix(0.5,-0.8660254,0.8660254,0.5,-263.86519,697.19807)" xlink:href="#path5460"/><use id="use5910" width="100%" height="100%" x="0" y="0" transform="matrix(0.76604444,-0.64278761,0.64278761,0.76604444,-242.71892,455.97288)" xlink:href="#path5460"/><use id="use5912" width="100%" height="100%" x="0" y="0" transform="matrix(0.93969262,-0.34202014,0.34202014,0.93969262,-140.34405,236.5278)" xlink:href="#path5460"/></g></g><circle id="path5454" cx="400" cy="572.362" r="84.474" style="opacity:1;fill:#fff;fill-opacity:1;fill-rule:nonzero;stroke:#000037;stroke-width:10.23999977;stroke-linecap:butt;stroke-linejoin:round;stroke-miterlimit:4;stroke-dasharray:none;stroke-dashoffset:0;stroke-opacity:1"/><circle id="path5992" cx="400" cy="572.362" r="72.315" style="opacity:1;fill:#b93c3c;fill-opacity:1;fill-rule:nonzero;stroke:none;stroke-width:12;stroke-linecap:round;stroke-linejoin:round;stroke-miterlimit:4;stroke-dasharray:none;stroke-dashoffset:0;stroke-opacity:1"/><g id="g6038" transform="translate(-0.17677669,0.08838835)"><path style="fill:none;fill-rule:evenodd;stroke:#fff;stroke-width:23.10970306;stroke-linecap:butt;stroke-linejoin:miter;stroke-miterlimit:4;stroke-dasharray:none;stroke-opacity:1" id="path5994" d="m 401.33152,554.24492 c -3.14542,-9.94018 -29.56798,-32.56818 -1.22213,-34.01501 29.36983,1.60064 0.87135,23.52895 -1.71866,34.17839"/><path style="fill:none;fill-rule:evenodd;stroke:#b93c3c;stroke-width:6;stroke-linecap:round;stroke-linejoin:round;stroke-miterlimit:4;stroke-dasharray:none;stroke-opacity:1" id="path6018" d="m 400,555.19145 0,-25.65771"/><circle style="opacity:1;fill:#b93c3c;fill-opacity:1;fill-rule:nonzero;stroke:none;stroke-width:3;stroke-linecap:round;stroke-linejoin:round;stroke-miterlimit:4;stroke-dasharray:none;stroke-dashoffset:0;stroke-opacity:1" id="path6028" cx="400" cy="527.834" r="4.819"/><path style="fill:none;fill-rule:evenodd;stroke:#b93c3c;stroke-width:4;stroke-linecap:round;stroke-linejoin:miter;stroke-miterlimit:4;stroke-dasharray:none;stroke-opacity:1" id="path6030" d="m 404.6875,557.4872 6.5651,-16.10951"/><use id="use6032" width="100%" height="100%" x="0" y="0" transform="matrix(-1,0,0,1,799.9375,0)" xlink:href="#path6030"/></g><circle id="path6010" cx="400" cy="572.362" r="16.035" style="opacity:1;fill:#fff;fill-opacity:1;fill-rule:nonzero;stroke:#b93c3c;stroke-width:6.66957808;stroke-linecap:round;stroke-linejoin:round;stroke-miterlimit:4;stroke-dasharray:none;stroke-dashoffset:0;stroke-opacity:1"/><circle id="path6016" cx="400" cy="572.362" r="8.537" style="opacity:1;fill:#b93c3c;fill-opacity:1;fill-rule:nonzero;stroke:none;stroke-width:6;stroke-linecap:round;stroke-linejoin:round;stroke-miterlimit:4;stroke-dasharray:none;stroke-dashoffset:0;stroke-opacity:1"/><use id="use6047" width="100%" height="100%" x="0" y="0" transform="matrix(0.30901699,-0.95105652,0.95105652,0.30901699,-267.97075,775.88681)" xlink:href="#g6038"/><use id="use6049" width="100%" height="100%" x="0" y="0" transform="matrix(0.30901699,-0.95105652,0.95105652,0.30901699,-267.97075,775.88681)" xlink:href="#use6047"/><use id="use6051" width="100%" height="100%" x="0" y="0" transform="matrix(0.30901699,-0.95105652,0.95105652,0.30901699,-267.97075,775.88681)" xlink:href="#use6049"/><use id="use6053" width="100%" height="100%" x="0" y="0" transform="matrix(0.30901699,-0.95105652,0.95105652,0.30901699,-267.97075,775.88681)" xlink:href="#use6051"/></g></g></svg>