<svg xmlns="http://www.w3.org/2000/svg" xmlns:osb="http://www.openswatchbook.org/uri/2009/osb" xmlns:svg="http://www.w3.org/2000/svg" xmlns:xlink="http://www.w3.org/1999/xlink" id="svg2" width="300" height="400" version="1.1" viewBox="0 0 300 400"><defs id="defs4"><linearGradient id="linearGradient10055" osb:paint="solid"><stop style="stop-color:#000;stop-opacity:1" id="stop10057" offset="0"/></linearGradient><marker id="Arrow1Lstart" orient="auto" refX="0" refY="0" style="overflow:visible"><path id="path4978" d="M 0,0 5,-5 -12.5,0 5,5 0,0 Z" style="fill:#000;fill-opacity:1;fill-rule:evenodd;stroke:#ff5c00;stroke-width:1pt;stroke-opacity:1" transform="matrix(0.8,0,0,0.8,10,0)"/></marker><clipPath id="clipPath4243" clipPathUnits="userSpaceOnUse"><circle style="opacity:1;fill:#000;fill-opacity:.29670332;fill-rule:nonzero;stroke:#000;stroke-width:19.13299942;stroke-linecap:butt;stroke-linejoin:round;stroke-miterlimit:4;stroke-dasharray:none;stroke-dashoffset:0;stroke-opacity:1" id="circle4245" cx="-264.66" cy="-198.207" r="293.954"/></clipPath><clipPath id="clipPath7847" clipPathUnits="userSpaceOnUse"><ellipse style="opacity:1;fill:#822600;fill-opacity:1;fill-rule:nonzero;stroke:none;stroke-width:12;stroke-linecap:round;stroke-linejoin:round;stroke-miterlimit:4;stroke-dasharray:none;stroke-dashoffset:0;stroke-opacity:1" id="ellipse7849" cx="394" cy="552.362" rx="349.495" ry="216"/></clipPath><clipPath id="clipPath4243-1" clipPathUnits="userSpaceOnUse"><circle style="opacity:1;fill:#000;fill-opacity:.29670332;fill-rule:nonzero;stroke:#000;stroke-width:19.13299942;stroke-linecap:butt;stroke-linejoin:round;stroke-miterlimit:4;stroke-dasharray:none;stroke-dashoffset:0;stroke-opacity:1" id="circle4245-4" cx="-264.66" cy="-198.207" r="293.954"/></clipPath><clipPath id="clipPath7876" clipPathUnits="userSpaceOnUse"><circle style="opacity:1;fill:#000;fill-opacity:.29670332;fill-rule:nonzero;stroke:#000;stroke-width:19.13299942;stroke-linecap:butt;stroke-linejoin:round;stroke-miterlimit:4;stroke-dasharray:none;stroke-dashoffset:0;stroke-opacity:1" id="circle7878" cx="-264.66" cy="-198.207" r="293.954"/></clipPath><clipPath id="clipPath14693" clipPathUnits="userSpaceOnUse"><rect style="opacity:1;fill:#a53c3c;fill-opacity:1;fill-rule:nonzero;stroke:none;stroke-width:8;stroke-linecap:round;stroke-linejoin:round;stroke-miterlimit:4;stroke-dasharray:none;stroke-dashoffset:0;stroke-opacity:1" id="rect14695" width="131.784" height="168.821" x="-332.596" y="383.498" rx="1.255" ry="3.751" transform="matrix(0.99939083,-0.03489951,0.03489951,0.99939083,0,0)"/></clipPath><clipPath id="clipPath14952" clipPathUnits="userSpaceOnUse"><ellipse style="opacity:1;fill:#a53c3c;fill-opacity:1;fill-rule:nonzero;stroke:none;stroke-width:7;stroke-linecap:round;stroke-linejoin:round;stroke-miterlimit:4;stroke-dasharray:none;stroke-dashoffset:0;stroke-opacity:1" id="ellipse14954" cx="-271.344" cy="647.256" rx="69.057" ry="116.911" transform="matrix(0.99939083,-0.03489951,0.03489951,0.99939083,0,0)"/></clipPath></defs><metadata id="metadata7"/><g id="layer1" transform="translate(0,-652.36216)"><g id="g7625" transform="translate(-3.570741e-7,-0.81785177)"><g id="g4360" transform="matrix(0.76584228,0,0,0.76584228,512.08203,490.47575)"><circle style="opacity:1;fill:#fff;fill-opacity:1;fill-rule:nonzero;stroke:#000;stroke-width:17.21711159;stroke-linecap:butt;stroke-linejoin:round;stroke-miterlimit:4;stroke-dasharray:none;stroke-dashoffset:0;stroke-opacity:1" id="path15137" cx="-472.783" cy="341.256" r="107.567"/><circle style="opacity:1;fill:#000037;fill-opacity:1;fill-rule:nonzero;stroke:none;stroke-width:0;stroke-linecap:butt;stroke-linejoin:round;stroke-miterlimit:4;stroke-dasharray:none;stroke-dashoffset:0;stroke-opacity:0" id="path15137-2" cx="-472.783" cy="341.627" r="87.813"/><g id="g4247" transform="matrix(0.10477442,0,0,0.08587532,-506.32882,359.1076)"><path d="m -93.329197,-74.125463 a 163.9187,163.9187 0 0 1 -224.595053,-13.081173 163.9187,163.9187 0 0 1 0,-224.975674 163.9187,163.9187 0 0 1 224.595055,-13.08117" mask="none" style="opacity:1;fill:none;fill-opacity:1;fill-rule:nonzero;stroke:#fff;stroke-width:125.71019745;stroke-linecap:round;stroke-linejoin:round;stroke-miterlimit:4;stroke-dasharray:none;stroke-dashoffset:0;stroke-opacity:1" id="circle15184"/></g><use id="use4252" width="100%" height="100%" x="0" y="0" transform="matrix(0.5,-0.8660254,0.8660254,0.5,-532.66673,-238.47425)" xlink:href="#g4247"/><use id="use4254" width="100%" height="100%" x="0" y="0" transform="matrix(0.5,-0.8660254,0.8660254,0.5,-533.74838,-239.03721)" xlink:href="#use4252"/><use id="use4256" width="100%" height="100%" x="0" y="0" transform="matrix(0.5,-0.8660254,0.8660254,0.5,-533.74838,-239.03721)" xlink:href="#use4254"/><use id="use4258" width="100%" height="100%" x="0" y="0" transform="matrix(0.5,-0.8660254,0.8660254,0.5,-533.74838,-239.03721)" xlink:href="#use4256"/><use id="use4260" width="100%" height="100%" x="0" y="0" transform="matrix(0.5,-0.8660254,0.8660254,0.5,-533.74838,-239.03721)" xlink:href="#use4258"/><circle style="opacity:1;fill:none;fill-opacity:1;fill-rule:nonzero;stroke:#fff;stroke-width:12.28584385;stroke-linecap:butt;stroke-linejoin:round;stroke-miterlimit:4;stroke-dasharray:none;stroke-dashoffset:0;stroke-opacity:1" id="path15154-5" cx="-472.931" cy="341.516" r="18.188"/></g><g id="g7557" transform="matrix(0.76584228,0,0,0.76584228,512.08203,692.97575)"><circle id="circle7559" cx="-472.783" cy="341.256" r="107.567" style="opacity:1;fill:#fff;fill-opacity:1;fill-rule:nonzero;stroke:#000;stroke-width:17.21711159;stroke-linecap:butt;stroke-linejoin:round;stroke-miterlimit:4;stroke-dasharray:none;stroke-dashoffset:0;stroke-opacity:1"/><circle id="circle7561" cx="-472.783" cy="341.627" r="87.813" style="opacity:1;fill:#000037;fill-opacity:1;fill-rule:nonzero;stroke:none;stroke-width:0;stroke-linecap:butt;stroke-linejoin:round;stroke-miterlimit:4;stroke-dasharray:none;stroke-dashoffset:0;stroke-opacity:0"/><g id="g7563" transform="matrix(0.10477442,0,0,0.08587532,-506.32882,359.1076)"><path id="path7565" d="m -93.329197,-74.125463 a 163.9187,163.9187 0 0 1 -224.595053,-13.081173 163.9187,163.9187 0 0 1 0,-224.975674 163.9187,163.9187 0 0 1 224.595055,-13.08117" style="opacity:1;fill:none;fill-opacity:1;fill-rule:nonzero;stroke:#fff;stroke-width:125.71019745;stroke-linecap:round;stroke-linejoin:round;stroke-miterlimit:4;stroke-dasharray:none;stroke-dashoffset:0;stroke-opacity:1" mask="none"/></g><use id="use7567" width="100%" height="100%" x="0" y="0" transform="matrix(0.5,-0.8660254,0.8660254,0.5,-532.66673,-238.47425)" xlink:href="#g4247"/><use id="use7569" width="100%" height="100%" x="0" y="0" transform="matrix(0.5,-0.8660254,0.8660254,0.5,-533.74838,-239.03721)" xlink:href="#use4252"/><use id="use7571" width="100%" height="100%" x="0" y="0" transform="matrix(0.5,-0.8660254,0.8660254,0.5,-533.74838,-239.03721)" xlink:href="#use4254"/><use id="use7573" width="100%" height="100%" x="0" y="0" transform="matrix(0.5,-0.8660254,0.8660254,0.5,-533.74838,-239.03721)" xlink:href="#use4256"/><use id="use7575" width="100%" height="100%" x="0" y="0" transform="matrix(0.5,-0.8660254,0.8660254,0.5,-533.74838,-239.03721)" xlink:href="#use4258"/><circle id="circle7577" cx="-472.931" cy="341.516" r="18.188" style="opacity:1;fill:none;fill-opacity:1;fill-rule:nonzero;stroke:#fff;stroke-width:12.28584385;stroke-linecap:butt;stroke-linejoin:round;stroke-miterlimit:4;stroke-dasharray:none;stroke-dashoffset:0;stroke-opacity:1"/></g></g></g></svg>