<svg xmlns="http://www.w3.org/2000/svg" xmlns:osb="http://www.openswatchbook.org/uri/2009/osb" xmlns:svg="http://www.w3.org/2000/svg" id="svg2" width="300" height="400" version="1.1" viewBox="0 0 300 400"><defs id="defs4"><linearGradient id="linearGradient10055" osb:paint="solid"><stop style="stop-color:#000;stop-opacity:1" id="stop10057" offset="0"/></linearGradient><marker id="Arrow1Lstart" orient="auto" refX="0" refY="0" style="overflow:visible"><path id="path4978" d="M 0,0 5,-5 -12.5,0 5,5 0,0 Z" style="fill:#000;fill-opacity:1;fill-rule:evenodd;stroke:#ff5c00;stroke-width:1pt;stroke-opacity:1" transform="matrix(0.8,0,0,0.8,10,0)"/></marker><clipPath id="clipPath4243" clipPathUnits="userSpaceOnUse"><circle style="opacity:1;fill:#000;fill-opacity:.29670332;fill-rule:nonzero;stroke:#000;stroke-width:19.13299942;stroke-linecap:butt;stroke-linejoin:round;stroke-miterlimit:4;stroke-dasharray:none;stroke-dashoffset:0;stroke-opacity:1" id="circle4245" cx="-264.66" cy="-198.207" r="293.954"/></clipPath><clipPath id="clipPath7847" clipPathUnits="userSpaceOnUse"><ellipse style="opacity:1;fill:#822600;fill-opacity:1;fill-rule:nonzero;stroke:none;stroke-width:12;stroke-linecap:round;stroke-linejoin:round;stroke-miterlimit:4;stroke-dasharray:none;stroke-dashoffset:0;stroke-opacity:1" id="ellipse7849" cx="394" cy="552.362" rx="349.495" ry="216"/></clipPath><clipPath id="clipPath4243-1" clipPathUnits="userSpaceOnUse"><circle style="opacity:1;fill:#000;fill-opacity:.29670332;fill-rule:nonzero;stroke:#000;stroke-width:19.13299942;stroke-linecap:butt;stroke-linejoin:round;stroke-miterlimit:4;stroke-dasharray:none;stroke-dashoffset:0;stroke-opacity:1" id="circle4245-4" cx="-264.66" cy="-198.207" r="293.954"/></clipPath><clipPath id="clipPath7876" clipPathUnits="userSpaceOnUse"><circle style="opacity:1;fill:#000;fill-opacity:.29670332;fill-rule:nonzero;stroke:#000;stroke-width:19.13299942;stroke-linecap:butt;stroke-linejoin:round;stroke-miterlimit:4;stroke-dasharray:none;stroke-dashoffset:0;stroke-opacity:1" id="circle7878" cx="-264.66" cy="-198.207" r="293.954"/></clipPath><clipPath id="clipPath14693" clipPathUnits="userSpaceOnUse"><rect style="opacity:1;fill:#a53c3c;fill-opacity:1;fill-rule:nonzero;stroke:none;stroke-width:8;stroke-linecap:round;stroke-linejoin:round;stroke-miterlimit:4;stroke-dasharray:none;stroke-dashoffset:0;stroke-opacity:1" id="rect14695" width="131.784" height="168.821" x="-332.596" y="383.498" rx="1.255" ry="3.751" transform="matrix(0.99939083,-0.03489951,0.03489951,0.99939083,0,0)"/></clipPath><clipPath id="clipPath14952" clipPathUnits="userSpaceOnUse"><ellipse style="opacity:1;fill:#a53c3c;fill-opacity:1;fill-rule:nonzero;stroke:none;stroke-width:7;stroke-linecap:round;stroke-linejoin:round;stroke-miterlimit:4;stroke-dasharray:none;stroke-dashoffset:0;stroke-opacity:1" id="ellipse14954" cx="-271.344" cy="647.256" rx="69.057" ry="116.911" transform="matrix(0.99939083,-0.03489951,0.03489951,0.99939083,0,0)"/></clipPath></defs><metadata id="metadata7"/><g id="layer1" transform="translate(0,-652.36216)"><g id="g4253"><g id="g6031" transform="translate(1034.3429,648.88567)"><path id="path6014" d="m -973.89996,230.33452 c 101.51009,10.77646 95.08642,-15.76217 180.06105,-18.57669 18.88461,-2.74566 17.63524,-17.45957 -0.44879,-16.01707 -90.36841,2.24313 -58.77943,34.93937 -177.69318,16.09165 -28.99732,-5.17596 -24.26375,14.56756 -1.91908,18.50211 z" style="fill:#b93c3c;fill-opacity:1;fill-rule:evenodd;stroke:none;stroke-width:1px;stroke-linecap:butt;stroke-linejoin:miter;stroke-opacity:1"/><path id="path6017" d="m -882.63587,187.13598 c 1.31149,-3.92427 -7.9972,-10.18109 -13.21935,-3.47239 -4.83118,7.47941 -6.26401,12.15587 -10.86019,17.41995 -1.95819,2.39301 -2.24128,7.72517 -0.21694,9.26756 7.56831,6.19882 6.72442,4.78418 11.49965,14.73834 l 20.53068,-1.76196 c -6.51994,-8.58948 -7.59705,-7.83487 -10.13116,-16.42437 -1.16483,-9.32704 -0.80813,-10.17567 2.39731,-19.76713 z" style="fill:#b93c3c;fill-opacity:1;fill-rule:evenodd;stroke:none;stroke-width:1px;stroke-linecap:butt;stroke-linejoin:miter;stroke-opacity:1"/><path id="path6019" d="m -856.84278,149.17395 c -2.07241,-2.1647 -3.30957,-2.93207 -6.21343,0 l -15.39121,15.54072 c -1.34759,1.50043 -1.37158,3.7049 -0.26356,4.96996 l 9.16958,8.83355 c 4.35362,4.25203 5.46399,7.31404 2.89974,12.33575 -3.41972,9.61649 -5.98603,19.36747 -6.09656,24.7078 l 21.1809,-3.48708 c -3.95944,-9.81743 -3.87088,-12.35734 2.86523,-21.64648 5.55911,-6.32692 10.93309,-7.7739 5.99542,-16.41723 z" style="fill:#b93c3c;fill-opacity:1;fill-rule:evenodd;stroke:none;stroke-width:1px;stroke-linecap:butt;stroke-linejoin:miter;stroke-opacity:1"/><path id="path6021" d="m -834.43931,229.52922 c -2.37961,3.3e-4 -5.11545,0.35227 -7.98633,0.67579 -25.98124,4.23953 -44.63197,13.66167 -87.7832,12.14062 -5.84133,0.0296 -10.79709,3.10802 -10.5918,7.58984 0.41578,9.89302 7.70014,62.17673 8.30469,66.88868 0.85285,6.41756 9.79015,6.98803 10.96679,1.34179 0.21553,-1.03423 0.2214,-3.95763 0.0977,-7.99609 0.54781,-1.14352 1.39786,-2.02021 2.30859,-2.18359 l 56.98242,-5.0918 c 0.57955,0.007 1.01412,0.54453 1.32032,1.33008 -0.4418,20.09339 -0.68432,39.74185 -0.25391,46.62304 0.12358,1.52015 0.0514,3.12015 1.57031,4.48635 3.62687,3.0336 24.10801,1.3634 29.40821,-1.9473 1.46854,-1.0778 1.9999,-1.583 2.19726,-3.83006 -2.96095,-33.99173 -0.66802,-77.2174 1.60547,-110.87305 0.59643,-7.45293 -2.91134,-9.15502 -8.14648,-9.1543 z m -26.98047,16.76368 c 5.65219,-1.38928 2.02203,15.82857 0.0879,15.87695 l -58.82813,4.61133 c -5.12716,-1.0242 -4.8804,-13.06608 -1.42188,-13.22852 26.63848,-0.89616 35.74375,-3.18112 60.16211,-7.25976 z m -0.12891,29.15234 c 1.70565,-0.1306 2.01753,12.38455 -0.38086,12.58598 l -57.32031,4.79687 c -4.10107,-1.15065 -4.35221,-11.96168 -0.7793,-12.49218 z" style="fill:#b93c3c;fill-opacity:1;fill-rule:evenodd;stroke:none;stroke-width:1px;stroke-linecap:butt;stroke-linejoin:miter;stroke-opacity:1"/><path id="path6023" d="m -881.54242,246.32019 -19.23296,0.63476 -5.29091,90.55948 c -0.75114,10.29193 4.49195,20.6109 11.24113,20.7628 l 18.7421,-6.5465 z" style="fill:#b93c3c;fill-opacity:1;fill-rule:evenodd;stroke:none;stroke-width:1px;stroke-linecap:butt;stroke-linejoin:miter;stroke-opacity:1"/><path id="path6025" d="m -942.63635,354.94033 0.84624,8.0276 c 54.24616,18.2836 41.63669,-8.576 96.89447,-15.15097 l -0.63469,-4.92845 c -42.24197,-2.98719 -64.35269,13.17942 -97.10602,12.05182 z" style="fill:#b93c3c;fill-opacity:1;fill-rule:evenodd;stroke:none;stroke-width:1px;stroke-linecap:butt;stroke-linejoin:miter;stroke-opacity:1"/><path id="path6027" d="m -947.81557,295.50699 c -4.79067,-14.34919 -18.0476,-11.53087 -15.5695,0.88508 13.89663,43.4482 17.94173,67.49746 19.79888,70.85866 10.79236,18.2285 18.40255,13.4537 19.07847,-2.4339 0.11137,-4.8491 -14.23436,-43.49455 -23.30785,-69.30984 z" style="fill:#b93c3c;fill-opacity:1;fill-rule:evenodd;stroke:none;stroke-width:1px;stroke-linecap:butt;stroke-linejoin:miter;stroke-opacity:1"/><path id="path6029" d="m -990.50324,324.51204 c -8.35911,-1.30406 -7.60048,9.08422 -3.31653,11.28821 59.84729,26.46758 123.8383,-8.86564 177.96674,-5.69096 2.05825,0.36905 5.31253,1.56409 8.29438,3.20196 9.55669,5.04809 3.73393,19.51008 -0.97638,22.47878 -21.53617,9.8449 -16.51418,0.091 -40.67325,11.2497 -2.27744,1.4605 -8.25717,2.5966 -10.48172,1.6848 -8.94326,-2.9779 -16.30179,-8.1024 -22.15012,-12.6641 l -11.18847,5.6458 c 6.90544,8.6009 17.09988,12.6716 25.54075,16.3714 6.74722,3.2135 14.12571,2.8541 19.02891,3.0056 25.10802,0.3448 48.58902,-9.2971 60.40286,-10.7554 3.45799,-0.5303 7.48318,-6.5254 9.05051,-9.3096 9.69143,-15.8724 5.68822,-18.57024 -1.08565,-35.18913 -3.84938,-6.23214 -14.98024,-8.01151 -20.8275,-8.80455 -60.71768,-2.57426 -138.25414,18.81176 -189.58453,7.48749 z" style="fill:#b93c3c;fill-opacity:1;fill-rule:evenodd;stroke:none;stroke-width:1px;stroke-linecap:butt;stroke-linejoin:miter;stroke-opacity:1"/></g><g id="g5622" transform="translate(-0.31322,0)"><path style="fill:#000;fill-opacity:1;fill-rule:evenodd;stroke:none;stroke-width:1px;stroke-linecap:butt;stroke-linejoin:miter;stroke-opacity:1" id="path5624" d="m 62.315839,776.95528 c -15.657846,0.14446 -14.691832,16.45959 -0.923632,17.70218 58.869103,1.54525 97.758173,-27.33279 137.587323,-22.02469 19.98546,1.1749 39.02169,17.27551 57.40002,14.91219 9.42656,-7.96723 7.5453,-30.35197 -1.24208,-31.70969 -49.95288,-9.82532 -27.62306,-12.21431 -56.97614,-6.04611 -48.90261,9.55913 -97.1292,27.16612 -135.845491,27.16612 z"/><path id="path5626" d="m 89.661002,684.20854 c -6.91223,1.5492 -10.30002,17.06074 0.41586,19.04255 36.846648,6.14772 78.975718,-10.70797 120.724168,-20.18515 7.12998,-1.4754 10.94035,-13.12436 11.4168,-18.03059 1.57904,-7.70459 -6.29095,-12.48591 -12.5426,-11.08522 -41.00285,16.91408 -78.10031,31.2545 -120.014228,30.25841 z" style="fill:#000;fill-opacity:1;fill-rule:evenodd;stroke:none;stroke-width:1px;stroke-linecap:butt;stroke-linejoin:miter;stroke-opacity:1"/><path style="fill:#000;fill-opacity:1;fill-rule:evenodd;stroke:none;stroke-width:1px;stroke-linecap:butt;stroke-linejoin:miter;stroke-opacity:1" id="path5628" d="m 89.841656,728.57665 c -6.115829,1.42706 -9.113286,15.71566 0.367952,17.54122 32.601292,5.66302 74.422712,-9.86375 111.361042,-18.59373 6.30848,-1.35909 7.36358,-14.44728 7.78513,-18.9667 1.39711,-7.09715 -3.24986,-9.14386 -8.78122,-7.85359 -36.27862,15.58055 -73.64819,28.79036 -110.732904,27.8728 z"/></g></g></g></svg>