<svg xmlns="http://www.w3.org/2000/svg" xmlns:osb="http://www.openswatchbook.org/uri/2009/osb" xmlns:svg="http://www.w3.org/2000/svg" id="svg2" width="300" height="400" version="1.1" viewBox="0 0 300 400"><defs id="defs4"><linearGradient id="linearGradient10055" osb:paint="solid"><stop style="stop-color:#000;stop-opacity:1" id="stop10057" offset="0"/></linearGradient><marker id="Arrow1Lstart" orient="auto" refX="0" refY="0" style="overflow:visible"><path id="path4978" d="M 0,0 5,-5 -12.5,0 5,5 0,0 Z" style="fill:#000;fill-opacity:1;fill-rule:evenodd;stroke:#ff5c00;stroke-width:1pt;stroke-opacity:1" transform="matrix(0.8,0,0,0.8,10,0)"/></marker><clipPath id="clipPath4243" clipPathUnits="userSpaceOnUse"><circle style="opacity:1;fill:#000;fill-opacity:.29670332;fill-rule:nonzero;stroke:#000;stroke-width:19.13299942;stroke-linecap:butt;stroke-linejoin:round;stroke-miterlimit:4;stroke-dasharray:none;stroke-dashoffset:0;stroke-opacity:1" id="circle4245" cx="-264.66" cy="-198.207" r="293.954"/></clipPath><clipPath id="clipPath7847" clipPathUnits="userSpaceOnUse"><ellipse style="opacity:1;fill:#822600;fill-opacity:1;fill-rule:nonzero;stroke:none;stroke-width:12;stroke-linecap:round;stroke-linejoin:round;stroke-miterlimit:4;stroke-dasharray:none;stroke-dashoffset:0;stroke-opacity:1" id="ellipse7849" cx="394" cy="552.362" rx="349.495" ry="216"/></clipPath><clipPath id="clipPath4243-1" clipPathUnits="userSpaceOnUse"><circle style="opacity:1;fill:#000;fill-opacity:.29670332;fill-rule:nonzero;stroke:#000;stroke-width:19.13299942;stroke-linecap:butt;stroke-linejoin:round;stroke-miterlimit:4;stroke-dasharray:none;stroke-dashoffset:0;stroke-opacity:1" id="circle4245-4" cx="-264.66" cy="-198.207" r="293.954"/></clipPath><clipPath id="clipPath7876" clipPathUnits="userSpaceOnUse"><circle style="opacity:1;fill:#000;fill-opacity:.29670332;fill-rule:nonzero;stroke:#000;stroke-width:19.13299942;stroke-linecap:butt;stroke-linejoin:round;stroke-miterlimit:4;stroke-dasharray:none;stroke-dashoffset:0;stroke-opacity:1" id="circle7878" cx="-264.66" cy="-198.207" r="293.954"/></clipPath><clipPath id="clipPath14693" clipPathUnits="userSpaceOnUse"><rect style="opacity:1;fill:#a53c3c;fill-opacity:1;fill-rule:nonzero;stroke:none;stroke-width:8;stroke-linecap:round;stroke-linejoin:round;stroke-miterlimit:4;stroke-dasharray:none;stroke-dashoffset:0;stroke-opacity:1" id="rect14695" width="131.784" height="168.821" x="-332.596" y="383.498" rx="1.255" ry="3.751" transform="matrix(0.99939083,-0.03489951,0.03489951,0.99939083,0,0)"/></clipPath><clipPath id="clipPath14952" clipPathUnits="userSpaceOnUse"><ellipse style="opacity:1;fill:#a53c3c;fill-opacity:1;fill-rule:nonzero;stroke:none;stroke-width:7;stroke-linecap:round;stroke-linejoin:round;stroke-miterlimit:4;stroke-dasharray:none;stroke-dashoffset:0;stroke-opacity:1" id="ellipse14954" cx="-271.344" cy="647.256" rx="69.057" ry="116.911" transform="matrix(0.99939083,-0.03489951,0.03489951,0.99939083,0,0)"/></clipPath></defs><metadata id="metadata7"/><g id="layer1" transform="translate(0,-652.36216)"><g id="g7942" transform="translate(4.6993944e-7,0.67748)"><g id="g7728" transform="matrix(1.0227353,0,0,1.0227353,288.32505,245.01862)"><circle id="circle7730" cx="-205.976" cy="485.489" r="59.759" style="opacity:1;fill:#000;fill-opacity:1;fill-rule:nonzero;stroke:none;stroke-width:8;stroke-linecap:round;stroke-linejoin:round;stroke-miterlimit:4;stroke-dasharray:none;stroke-dashoffset:0;stroke-opacity:1"/><circle id="circle7732" cx="-205.976" cy="485.489" r="45.07" style="opacity:1;fill:#fff;fill-opacity:1;fill-rule:nonzero;stroke:none;stroke-width:8;stroke-linecap:round;stroke-linejoin:round;stroke-miterlimit:4;stroke-dasharray:none;stroke-dashoffset:0;stroke-opacity:1"/><circle id="circle7734" cx="-205.976" cy="485.489" r="38.811" style="opacity:1;fill:#000037;fill-opacity:1;fill-rule:nonzero;stroke:none;stroke-width:8;stroke-linecap:round;stroke-linejoin:round;stroke-miterlimit:4;stroke-dasharray:none;stroke-dashoffset:0;stroke-opacity:1"/><path style="opacity:1;fill:none;fill-opacity:.29670332;fill-rule:nonzero;stroke:#fff;stroke-width:6.60038757;stroke-linecap:round;stroke-linejoin:round;stroke-miterlimit:4;stroke-dasharray:13.20077528,13.20077528;stroke-dashoffset:0;stroke-opacity:1" id="path7736" d="m -188.24619,-484.05789 a 21.068708,21.06871 0 0 1 -20.6726,21.06498 21.068708,21.06871 0 0 1 -21.44992,-20.27292 21.068708,21.06871 0 0 1 19.86607,-21.82727 21.068708,21.06871 0 0 1 22.1969,19.4522" transform="matrix(0.99997625,-0.00689127,-0.00689127,-0.99997625,0,0)"/><circle id="circle7738" cx="-205.976" cy="485.489" r="7.853" style="opacity:1;fill:#fff;fill-opacity:1;fill-rule:nonzero;stroke:none;stroke-width:8;stroke-linecap:round;stroke-linejoin:round;stroke-miterlimit:4;stroke-dasharray:none;stroke-dashoffset:0;stroke-opacity:1"/><circle id="circle7740" cx="-205.976" cy="485.489" r="3.586" style="opacity:1;fill:#000037;fill-opacity:1;fill-rule:nonzero;stroke:none;stroke-width:8;stroke-linecap:round;stroke-linejoin:round;stroke-miterlimit:4;stroke-dasharray:none;stroke-dashoffset:0;stroke-opacity:1"/></g><g id="g7784" transform="matrix(1.0227353,0,0,1.0227353,432.4431,245.01862)"><circle style="opacity:1;fill:#000;fill-opacity:1;fill-rule:nonzero;stroke:none;stroke-width:8;stroke-linecap:round;stroke-linejoin:round;stroke-miterlimit:4;stroke-dasharray:none;stroke-dashoffset:0;stroke-opacity:1" id="circle7786" cx="-205.976" cy="485.489" r="59.759"/><circle style="opacity:1;fill:#fff;fill-opacity:1;fill-rule:nonzero;stroke:none;stroke-width:8;stroke-linecap:round;stroke-linejoin:round;stroke-miterlimit:4;stroke-dasharray:none;stroke-dashoffset:0;stroke-opacity:1" id="circle7788" cx="-205.976" cy="485.489" r="45.07"/><circle style="opacity:1;fill:#000037;fill-opacity:1;fill-rule:nonzero;stroke:none;stroke-width:8;stroke-linecap:round;stroke-linejoin:round;stroke-miterlimit:4;stroke-dasharray:none;stroke-dashoffset:0;stroke-opacity:1" id="circle7790" cx="-205.976" cy="485.489" r="38.811"/><path id="path7792" d="m -188.24619,-484.05789 a 21.068708,21.06871 0 0 1 -20.6726,21.06498 21.068708,21.06871 0 0 1 -21.44992,-20.27292 21.068708,21.06871 0 0 1 19.86607,-21.82727 21.068708,21.06871 0 0 1 22.1969,19.4522" transform="matrix(0.99997625,-0.00689127,-0.00689127,-0.99997625,0,0)" style="opacity:1;fill:none;fill-opacity:.29670332;fill-rule:nonzero;stroke:#fff;stroke-width:6.60038757;stroke-linecap:round;stroke-linejoin:round;stroke-miterlimit:4;stroke-dasharray:13.20077528,13.20077528;stroke-dashoffset:0;stroke-opacity:1"/><circle style="opacity:1;fill:#fff;fill-opacity:1;fill-rule:nonzero;stroke:none;stroke-width:8;stroke-linecap:round;stroke-linejoin:round;stroke-miterlimit:4;stroke-dasharray:none;stroke-dashoffset:0;stroke-opacity:1" id="circle7794" cx="-205.976" cy="485.489" r="7.853"/><circle style="opacity:1;fill:#000037;fill-opacity:1;fill-rule:nonzero;stroke:none;stroke-width:8;stroke-linecap:round;stroke-linejoin:round;stroke-miterlimit:4;stroke-dasharray:none;stroke-dashoffset:0;stroke-opacity:1" id="circle7796" cx="-205.976" cy="485.489" r="3.586"/></g><g id="g7798" transform="matrix(1.0227353,0,0,1.0227353,288.32505,464.94965)"><circle style="opacity:1;fill:#000;fill-opacity:1;fill-rule:nonzero;stroke:none;stroke-width:8;stroke-linecap:round;stroke-linejoin:round;stroke-miterlimit:4;stroke-dasharray:none;stroke-dashoffset:0;stroke-opacity:1" id="circle7800" cx="-205.976" cy="485.489" r="59.759"/><circle style="opacity:1;fill:#fff;fill-opacity:1;fill-rule:nonzero;stroke:none;stroke-width:8;stroke-linecap:round;stroke-linejoin:round;stroke-miterlimit:4;stroke-dasharray:none;stroke-dashoffset:0;stroke-opacity:1" id="circle7802" cx="-205.976" cy="485.489" r="45.07"/><circle style="opacity:1;fill:#000037;fill-opacity:1;fill-rule:nonzero;stroke:none;stroke-width:8;stroke-linecap:round;stroke-linejoin:round;stroke-miterlimit:4;stroke-dasharray:none;stroke-dashoffset:0;stroke-opacity:1" id="circle7804" cx="-205.976" cy="485.489" r="38.811"/><path id="path7806" d="m -188.24619,-484.05789 a 21.068708,21.06871 0 0 1 -20.6726,21.06498 21.068708,21.06871 0 0 1 -21.44992,-20.27292 21.068708,21.06871 0 0 1 19.86607,-21.82727 21.068708,21.06871 0 0 1 22.1969,19.4522" transform="matrix(0.99997625,-0.00689127,-0.00689127,-0.99997625,0,0)" style="opacity:1;fill:none;fill-opacity:.29670332;fill-rule:nonzero;stroke:#fff;stroke-width:6.60038757;stroke-linecap:round;stroke-linejoin:round;stroke-miterlimit:4;stroke-dasharray:13.20077528,13.20077528;stroke-dashoffset:0;stroke-opacity:1"/><circle style="opacity:1;fill:#fff;fill-opacity:1;fill-rule:nonzero;stroke:none;stroke-width:8;stroke-linecap:round;stroke-linejoin:round;stroke-miterlimit:4;stroke-dasharray:none;stroke-dashoffset:0;stroke-opacity:1" id="circle7808" cx="-205.976" cy="485.489" r="7.853"/><circle style="opacity:1;fill:#000037;fill-opacity:1;fill-rule:nonzero;stroke:none;stroke-width:8;stroke-linecap:round;stroke-linejoin:round;stroke-miterlimit:4;stroke-dasharray:none;stroke-dashoffset:0;stroke-opacity:1" id="circle7810" cx="-205.976" cy="485.489" r="3.586"/></g><g id="g7812" transform="matrix(1.0227353,0,0,1.0227353,432.4431,464.94965)"><circle id="circle7814" cx="-205.976" cy="485.489" r="59.759" style="opacity:1;fill:#000;fill-opacity:1;fill-rule:nonzero;stroke:none;stroke-width:8;stroke-linecap:round;stroke-linejoin:round;stroke-miterlimit:4;stroke-dasharray:none;stroke-dashoffset:0;stroke-opacity:1"/><circle id="circle7816" cx="-205.976" cy="485.489" r="45.07" style="opacity:1;fill:#fff;fill-opacity:1;fill-rule:nonzero;stroke:none;stroke-width:8;stroke-linecap:round;stroke-linejoin:round;stroke-miterlimit:4;stroke-dasharray:none;stroke-dashoffset:0;stroke-opacity:1"/><circle id="circle7818" cx="-205.976" cy="485.489" r="38.811" style="opacity:1;fill:#000037;fill-opacity:1;fill-rule:nonzero;stroke:none;stroke-width:8;stroke-linecap:round;stroke-linejoin:round;stroke-miterlimit:4;stroke-dasharray:none;stroke-dashoffset:0;stroke-opacity:1"/><path style="opacity:1;fill:none;fill-opacity:.29670332;fill-rule:nonzero;stroke:#fff;stroke-width:6.60038757;stroke-linecap:round;stroke-linejoin:round;stroke-miterlimit:4;stroke-dasharray:13.20077528,13.20077528;stroke-dashoffset:0;stroke-opacity:1" id="path7820" d="m -188.24619,-484.05789 a 21.068708,21.06871 0 0 1 -20.6726,21.06498 21.068708,21.06871 0 0 1 -21.44992,-20.27292 21.068708,21.06871 0 0 1 19.86607,-21.82727 21.068708,21.06871 0 0 1 22.1969,19.4522" transform="matrix(0.99997625,-0.00689127,-0.00689127,-0.99997625,0,0)"/><circle id="circle7822" cx="-205.976" cy="485.489" r="7.853" style="opacity:1;fill:#fff;fill-opacity:1;fill-rule:nonzero;stroke:none;stroke-width:8;stroke-linecap:round;stroke-linejoin:round;stroke-miterlimit:4;stroke-dasharray:none;stroke-dashoffset:0;stroke-opacity:1"/><circle id="circle7824" cx="-205.976" cy="485.489" r="3.586" style="opacity:1;fill:#000037;fill-opacity:1;fill-rule:nonzero;stroke:none;stroke-width:8;stroke-linecap:round;stroke-linejoin:round;stroke-miterlimit:4;stroke-dasharray:none;stroke-dashoffset:0;stroke-opacity:1"/></g><g id="g7826" transform="matrix(1.0227353,0,0,1.0227353,360.63962,355.83523)"><circle style="opacity:1;fill:#000;fill-opacity:1;fill-rule:nonzero;stroke:none;stroke-width:8;stroke-linecap:round;stroke-linejoin:round;stroke-miterlimit:4;stroke-dasharray:none;stroke-dashoffset:0;stroke-opacity:1" id="circle7828" cx="-205.976" cy="485.489" r="59.759"/><circle style="opacity:1;fill:#fff;fill-opacity:1;fill-rule:nonzero;stroke:none;stroke-width:8;stroke-linecap:round;stroke-linejoin:round;stroke-miterlimit:4;stroke-dasharray:none;stroke-dashoffset:0;stroke-opacity:1" id="circle7830" cx="-205.976" cy="485.489" r="45.07"/><circle style="opacity:1;fill:#b93c3c;fill-opacity:1;fill-rule:nonzero;stroke:none;stroke-width:8;stroke-linecap:round;stroke-linejoin:round;stroke-miterlimit:4;stroke-dasharray:none;stroke-dashoffset:0;stroke-opacity:1" id="circle7832" cx="-205.976" cy="485.489" r="38.811"/><path id="path7834" d="m -188.24619,-484.05789 a 21.068708,21.06871 0 0 1 -20.6726,21.06498 21.068708,21.06871 0 0 1 -21.44992,-20.27292 21.068708,21.06871 0 0 1 19.86607,-21.82727 21.068708,21.06871 0 0 1 22.1969,19.4522" transform="matrix(0.99997625,-0.00689127,-0.00689127,-0.99997625,0,0)" style="opacity:1;fill:none;fill-opacity:.29670332;fill-rule:nonzero;stroke:#fff;stroke-width:6.60038757;stroke-linecap:round;stroke-linejoin:round;stroke-miterlimit:4;stroke-dasharray:13.20077528,13.20077528;stroke-dashoffset:0;stroke-opacity:1"/><circle style="opacity:1;fill:#fff;fill-opacity:1;fill-rule:nonzero;stroke:none;stroke-width:8;stroke-linecap:round;stroke-linejoin:round;stroke-miterlimit:4;stroke-dasharray:none;stroke-dashoffset:0;stroke-opacity:1" id="circle7836" cx="-205.976" cy="485.489" r="7.853"/><circle style="opacity:1;fill:#b93c3c;fill-opacity:1;fill-rule:nonzero;stroke:none;stroke-width:8;stroke-linecap:round;stroke-linejoin:round;stroke-miterlimit:4;stroke-dasharray:none;stroke-dashoffset:0;stroke-opacity:1" id="circle7838" cx="-205.976" cy="485.489" r="3.586"/></g></g></g></svg>