<svg xmlns="http://www.w3.org/2000/svg" xmlns:osb="http://www.openswatchbook.org/uri/2009/osb" xmlns:svg="http://www.w3.org/2000/svg" id="svg2" width="300" height="400" version="1.1" viewBox="0 0 300 400"><defs id="defs4"><linearGradient id="linearGradient10055" osb:paint="solid"><stop style="stop-color:#000;stop-opacity:1" id="stop10057" offset="0"/></linearGradient><marker id="Arrow1Lstart" orient="auto" refX="0" refY="0" style="overflow:visible"><path id="path4978" d="M 0,0 5,-5 -12.5,0 5,5 0,0 Z" style="fill:#000;fill-opacity:1;fill-rule:evenodd;stroke:#ff5c00;stroke-width:1pt;stroke-opacity:1" transform="matrix(0.8,0,0,0.8,10,0)"/></marker><clipPath id="clipPath4243" clipPathUnits="userSpaceOnUse"><circle style="opacity:1;fill:#000;fill-opacity:.29670332;fill-rule:nonzero;stroke:#000;stroke-width:19.13299942;stroke-linecap:butt;stroke-linejoin:round;stroke-miterlimit:4;stroke-dasharray:none;stroke-dashoffset:0;stroke-opacity:1" id="circle4245" cx="-264.66" cy="-198.207" r="293.954"/></clipPath><clipPath id="clipPath7847" clipPathUnits="userSpaceOnUse"><ellipse style="opacity:1;fill:#822600;fill-opacity:1;fill-rule:nonzero;stroke:none;stroke-width:12;stroke-linecap:round;stroke-linejoin:round;stroke-miterlimit:4;stroke-dasharray:none;stroke-dashoffset:0;stroke-opacity:1" id="ellipse7849" cx="394" cy="552.362" rx="349.495" ry="216"/></clipPath><clipPath id="clipPath4243-1" clipPathUnits="userSpaceOnUse"><circle style="opacity:1;fill:#000;fill-opacity:.29670332;fill-rule:nonzero;stroke:#000;stroke-width:19.13299942;stroke-linecap:butt;stroke-linejoin:round;stroke-miterlimit:4;stroke-dasharray:none;stroke-dashoffset:0;stroke-opacity:1" id="circle4245-4" cx="-264.66" cy="-198.207" r="293.954"/></clipPath><clipPath id="clipPath7876" clipPathUnits="userSpaceOnUse"><circle style="opacity:1;fill:#000;fill-opacity:.29670332;fill-rule:nonzero;stroke:#000;stroke-width:19.13299942;stroke-linecap:butt;stroke-linejoin:round;stroke-miterlimit:4;stroke-dasharray:none;stroke-dashoffset:0;stroke-opacity:1" id="circle7878" cx="-264.66" cy="-198.207" r="293.954"/></clipPath><clipPath id="clipPath14693" clipPathUnits="userSpaceOnUse"><rect style="opacity:1;fill:#a53c3c;fill-opacity:1;fill-rule:nonzero;stroke:none;stroke-width:8;stroke-linecap:round;stroke-linejoin:round;stroke-miterlimit:4;stroke-dasharray:none;stroke-dashoffset:0;stroke-opacity:1" id="rect14695" width="131.784" height="168.821" x="-332.596" y="383.498" rx="1.255" ry="3.751" transform="matrix(0.99939083,-0.03489951,0.03489951,0.99939083,0,0)"/></clipPath><clipPath id="clipPath14952" clipPathUnits="userSpaceOnUse"><ellipse style="opacity:1;fill:#a53c3c;fill-opacity:1;fill-rule:nonzero;stroke:none;stroke-width:7;stroke-linecap:round;stroke-linejoin:round;stroke-miterlimit:4;stroke-dasharray:none;stroke-dashoffset:0;stroke-opacity:1" id="ellipse14954" cx="-271.344" cy="647.256" rx="69.057" ry="116.911" transform="matrix(0.99939083,-0.03489951,0.03489951,0.99939083,0,0)"/></clipPath></defs><metadata id="metadata7"/><g id="layer1" transform="translate(0,-652.36216)"><g id="g8749" transform="translate(-2.2924804e-7,0.0010341)"><circle style="opacity:1;fill:#000;fill-opacity:1;fill-rule:nonzero;stroke:none;stroke-width:8;stroke-linecap:round;stroke-linejoin:round;stroke-miterlimit:4;stroke-dasharray:none;stroke-dashoffset:0;stroke-opacity:1" id="circle8575" cx="97.786" cy="718.121" r="61.118"/><circle id="circle8589" cx="97.786" cy="808.121" r="61.118" style="opacity:1;fill:#000;fill-opacity:1;fill-rule:nonzero;stroke:none;stroke-width:8;stroke-linecap:round;stroke-linejoin:round;stroke-miterlimit:4;stroke-dasharray:none;stroke-dashoffset:0;stroke-opacity:1"/><circle id="circle8619" cx="97.786" cy="896.621" r="61.118" style="opacity:1;fill:#000;fill-opacity:1;fill-rule:nonzero;stroke:none;stroke-width:8;stroke-linecap:round;stroke-linejoin:round;stroke-miterlimit:4;stroke-dasharray:none;stroke-dashoffset:0;stroke-opacity:1"/><circle style="opacity:1;fill:#000;fill-opacity:1;fill-rule:nonzero;stroke:none;stroke-width:8;stroke-linecap:round;stroke-linejoin:round;stroke-miterlimit:4;stroke-dasharray:none;stroke-dashoffset:0;stroke-opacity:1" id="circle8633" cx="97.786" cy="986.621" r="61.118"/><circle id="circle8647" cx="202.214" cy="718.121" r="61.118" style="opacity:1;fill:#000;fill-opacity:1;fill-rule:nonzero;stroke:none;stroke-width:8;stroke-linecap:round;stroke-linejoin:round;stroke-miterlimit:4;stroke-dasharray:none;stroke-dashoffset:0;stroke-opacity:1"/><circle style="opacity:1;fill:#000;fill-opacity:1;fill-rule:nonzero;stroke:none;stroke-width:8;stroke-linecap:round;stroke-linejoin:round;stroke-miterlimit:4;stroke-dasharray:none;stroke-dashoffset:0;stroke-opacity:1" id="circle8661" cx="202.214" cy="808.121" r="61.118"/><circle style="opacity:1;fill:#000;fill-opacity:1;fill-rule:nonzero;stroke:none;stroke-width:8;stroke-linecap:round;stroke-linejoin:round;stroke-miterlimit:4;stroke-dasharray:none;stroke-dashoffset:0;stroke-opacity:1" id="circle8675" cx="202.214" cy="896.621" r="61.118"/><circle id="circle8689" cx="202.214" cy="986.621" r="61.118" style="opacity:1;fill:#000;fill-opacity:1;fill-rule:nonzero;stroke:none;stroke-width:8;stroke-linecap:round;stroke-linejoin:round;stroke-miterlimit:4;stroke-dasharray:none;stroke-dashoffset:0;stroke-opacity:1"/><circle style="opacity:1;fill:#fff;fill-opacity:1;fill-rule:nonzero;stroke:none;stroke-width:8;stroke-linecap:round;stroke-linejoin:round;stroke-miterlimit:4;stroke-dasharray:none;stroke-dashoffset:0;stroke-opacity:1" id="circle8577" cx="97.786" cy="718.121" r="46.095"/><circle style="opacity:1;fill:#000037;fill-opacity:1;fill-rule:nonzero;stroke:none;stroke-width:8;stroke-linecap:round;stroke-linejoin:round;stroke-miterlimit:4;stroke-dasharray:none;stroke-dashoffset:0;stroke-opacity:1" id="circle8579" cx="97.786" cy="718.121" r="39.693"/><path id="path8581" d="m 114.38392,-718.77771 a 21.547712,21.547714 0 0 1 -21.142601,21.54391 21.547712,21.547714 0 0 1 -21.937587,-20.73384 21.547712,21.547714 0 0 1 20.317733,-22.32352 21.547712,21.547714 0 0 1 22.701555,19.89446" transform="matrix(0.99997625,-0.00689127,-0.00689127,-0.99997625,0,0)" style="opacity:1;fill:none;fill-opacity:.29670332;fill-rule:nonzero;stroke:#fff;stroke-width:6.75044918;stroke-linecap:round;stroke-linejoin:round;stroke-miterlimit:4;stroke-dasharray:13.50089867,13.50089867;stroke-dashoffset:0;stroke-opacity:1"/><circle style="opacity:1;fill:#fff;fill-opacity:1;fill-rule:nonzero;stroke:none;stroke-width:8;stroke-linecap:round;stroke-linejoin:round;stroke-miterlimit:4;stroke-dasharray:none;stroke-dashoffset:0;stroke-opacity:1" id="circle8583" cx="97.786" cy="718.121" r="8.032"/><circle style="opacity:1;fill:#000037;fill-opacity:1;fill-rule:nonzero;stroke:none;stroke-width:8;stroke-linecap:round;stroke-linejoin:round;stroke-miterlimit:4;stroke-dasharray:none;stroke-dashoffset:0;stroke-opacity:1" id="circle8585" cx="97.786" cy="718.121" r="3.668"/><circle id="circle8591" cx="97.786" cy="808.121" r="46.095" style="opacity:1;fill:#fff;fill-opacity:1;fill-rule:nonzero;stroke:none;stroke-width:8;stroke-linecap:round;stroke-linejoin:round;stroke-miterlimit:4;stroke-dasharray:none;stroke-dashoffset:0;stroke-opacity:1"/><circle id="circle8593" cx="97.786" cy="808.121" r="39.693" style="opacity:1;fill:#000037;fill-opacity:1;fill-rule:nonzero;stroke:none;stroke-width:8;stroke-linecap:round;stroke-linejoin:round;stroke-miterlimit:4;stroke-dasharray:none;stroke-dashoffset:0;stroke-opacity:1"/><path style="opacity:1;fill:none;fill-opacity:.29670332;fill-rule:nonzero;stroke:#fff;stroke-width:6.75044918;stroke-linecap:round;stroke-linejoin:round;stroke-miterlimit:4;stroke-dasharray:13.50089867,13.50089867;stroke-dashoffset:0;stroke-opacity:1" id="path8595" d="m 113.76372,-808.77557 a 21.547712,21.547714 0 0 1 -21.14261,21.5439 21.547712,21.547714 0 0 1 -21.937587,-20.73383 21.547712,21.547714 0 0 1 20.317733,-22.32352 21.547712,21.547714 0 0 1 22.701554,19.89445" transform="matrix(0.99997625,-0.00689127,-0.00689127,-0.99997625,0,0)"/><circle id="circle8597" cx="97.786" cy="808.121" r="8.032" style="opacity:1;fill:#fff;fill-opacity:1;fill-rule:nonzero;stroke:none;stroke-width:8;stroke-linecap:round;stroke-linejoin:round;stroke-miterlimit:4;stroke-dasharray:none;stroke-dashoffset:0;stroke-opacity:1"/><circle id="circle8599" cx="97.786" cy="808.121" r="3.668" style="opacity:1;fill:#000037;fill-opacity:1;fill-rule:nonzero;stroke:none;stroke-width:8;stroke-linecap:round;stroke-linejoin:round;stroke-miterlimit:4;stroke-dasharray:none;stroke-dashoffset:0;stroke-opacity:1"/><circle id="circle8621" cx="97.786" cy="896.621" r="46.095" style="opacity:1;fill:#fff;fill-opacity:1;fill-rule:nonzero;stroke:none;stroke-width:8;stroke-linecap:round;stroke-linejoin:round;stroke-miterlimit:4;stroke-dasharray:none;stroke-dashoffset:0;stroke-opacity:1"/><circle id="circle8623" cx="97.786" cy="896.621" r="39.693" style="opacity:1;fill:#000037;fill-opacity:1;fill-rule:nonzero;stroke:none;stroke-width:8;stroke-linecap:round;stroke-linejoin:round;stroke-miterlimit:4;stroke-dasharray:none;stroke-dashoffset:0;stroke-opacity:1"/><path style="opacity:1;fill:none;fill-opacity:.29670332;fill-rule:nonzero;stroke:#fff;stroke-width:6.75044918;stroke-linecap:round;stroke-linejoin:round;stroke-miterlimit:4;stroke-dasharray:13.50089867,13.50089867;stroke-dashoffset:0;stroke-opacity:1" id="path8625" d="m 113.15384,-897.27344 a 21.547712,21.547714 0 0 1 -21.142609,21.54391 21.547712,21.547714 0 0 1 -21.937586,-20.73384 21.547712,21.547714 0 0 1 20.317733,-22.32351 21.547712,21.547714 0 0 1 22.701552,19.89445" transform="matrix(0.99997625,-0.00689127,-0.00689127,-0.99997625,0,0)"/><circle id="circle8627" cx="97.786" cy="896.621" r="8.032" style="opacity:1;fill:#fff;fill-opacity:1;fill-rule:nonzero;stroke:none;stroke-width:8;stroke-linecap:round;stroke-linejoin:round;stroke-miterlimit:4;stroke-dasharray:none;stroke-dashoffset:0;stroke-opacity:1"/><circle id="circle8629" cx="97.786" cy="896.621" r="3.668" style="opacity:1;fill:#000037;fill-opacity:1;fill-rule:nonzero;stroke:none;stroke-width:8;stroke-linecap:round;stroke-linejoin:round;stroke-miterlimit:4;stroke-dasharray:none;stroke-dashoffset:0;stroke-opacity:1"/><circle style="opacity:1;fill:#fff;fill-opacity:1;fill-rule:nonzero;stroke:none;stroke-width:8;stroke-linecap:round;stroke-linejoin:round;stroke-miterlimit:4;stroke-dasharray:none;stroke-dashoffset:0;stroke-opacity:1" id="circle8635" cx="97.786" cy="986.621" r="46.095"/><circle style="opacity:1;fill:#000037;fill-opacity:1;fill-rule:nonzero;stroke:none;stroke-width:8;stroke-linecap:round;stroke-linejoin:round;stroke-miterlimit:4;stroke-dasharray:none;stroke-dashoffset:0;stroke-opacity:1" id="circle8637" cx="97.786" cy="986.621" r="39.693"/><path id="path8639" d="m 112.53362,-987.2713 a 21.547712,21.547714 0 0 1 -21.142605,21.5439 21.547712,21.547714 0 0 1 -21.937586,-20.73383 21.547712,21.547714 0 0 1 20.317733,-22.32347 21.547712,21.547714 0 0 1 22.701548,19.8944" transform="matrix(0.99997625,-0.00689127,-0.00689127,-0.99997625,0,0)" style="opacity:1;fill:none;fill-opacity:.29670332;fill-rule:nonzero;stroke:#fff;stroke-width:6.75044918;stroke-linecap:round;stroke-linejoin:round;stroke-miterlimit:4;stroke-dasharray:13.50089867,13.50089867;stroke-dashoffset:0;stroke-opacity:1"/><circle style="opacity:1;fill:#fff;fill-opacity:1;fill-rule:nonzero;stroke:none;stroke-width:8;stroke-linecap:round;stroke-linejoin:round;stroke-miterlimit:4;stroke-dasharray:none;stroke-dashoffset:0;stroke-opacity:1" id="circle8641" cx="97.786" cy="986.621" r="8.032"/><circle style="opacity:1;fill:#000037;fill-opacity:1;fill-rule:nonzero;stroke:none;stroke-width:8;stroke-linecap:round;stroke-linejoin:round;stroke-miterlimit:4;stroke-dasharray:none;stroke-dashoffset:0;stroke-opacity:1" id="circle8643" cx="97.786" cy="986.621" r="3.668"/><circle id="circle8649" cx="202.214" cy="718.121" r="46.095" style="opacity:1;fill:#fff;fill-opacity:1;fill-rule:nonzero;stroke:none;stroke-width:8;stroke-linecap:round;stroke-linejoin:round;stroke-miterlimit:4;stroke-dasharray:none;stroke-dashoffset:0;stroke-opacity:1"/><circle id="circle8651" cx="202.214" cy="718.121" r="39.693" style="opacity:1;fill:#000037;fill-opacity:1;fill-rule:nonzero;stroke:none;stroke-width:8;stroke-linecap:round;stroke-linejoin:round;stroke-miterlimit:4;stroke-dasharray:none;stroke-dashoffset:0;stroke-opacity:1"/><path style="opacity:1;fill:none;fill-opacity:.29670332;fill-rule:nonzero;stroke:#fff;stroke-width:6.75044918;stroke-linecap:round;stroke-linejoin:round;stroke-miterlimit:4;stroke-dasharray:13.50089867,13.50089867;stroke-dashoffset:0;stroke-opacity:1" id="path8653" d="m 218.80952,-719.49738 a 21.547712,21.547714 0 0 1 -21.1426,21.54391 21.547712,21.547714 0 0 1 -21.93759,-20.73384 21.547712,21.547714 0 0 1 20.31773,-22.32351 21.547712,21.547714 0 0 1 22.70155,19.89445" transform="matrix(0.99997625,-0.00689127,-0.00689127,-0.99997625,0,0)"/><circle id="circle8655" cx="202.214" cy="718.121" r="8.032" style="opacity:1;fill:#fff;fill-opacity:1;fill-rule:nonzero;stroke:none;stroke-width:8;stroke-linecap:round;stroke-linejoin:round;stroke-miterlimit:4;stroke-dasharray:none;stroke-dashoffset:0;stroke-opacity:1"/><circle id="circle8657" cx="202.214" cy="718.121" r="3.668" style="opacity:1;fill:#000037;fill-opacity:1;fill-rule:nonzero;stroke:none;stroke-width:8;stroke-linecap:round;stroke-linejoin:round;stroke-miterlimit:4;stroke-dasharray:none;stroke-dashoffset:0;stroke-opacity:1"/><circle style="opacity:1;fill:#fff;fill-opacity:1;fill-rule:nonzero;stroke:none;stroke-width:8;stroke-linecap:round;stroke-linejoin:round;stroke-miterlimit:4;stroke-dasharray:none;stroke-dashoffset:0;stroke-opacity:1" id="circle8663" cx="202.214" cy="808.121" r="46.095"/><circle style="opacity:1;fill:#000037;fill-opacity:1;fill-rule:nonzero;stroke:none;stroke-width:8;stroke-linecap:round;stroke-linejoin:round;stroke-miterlimit:4;stroke-dasharray:none;stroke-dashoffset:0;stroke-opacity:1" id="circle8665" cx="202.214" cy="808.121" r="39.693"/><path id="path8667" d="m 218.1893,-809.49518 a 21.547712,21.547714 0 0 1 -21.14261,21.54391 21.547712,21.547714 0 0 1 -21.93758,-20.73384 21.547712,21.547714 0 0 1 20.31773,-22.32351 21.547712,21.547714 0 0 1 22.70155,19.89445" transform="matrix(0.99997625,-0.00689127,-0.00689127,-0.99997625,0,0)" style="opacity:1;fill:none;fill-opacity:.29670332;fill-rule:nonzero;stroke:#fff;stroke-width:6.75044918;stroke-linecap:round;stroke-linejoin:round;stroke-miterlimit:4;stroke-dasharray:13.50089867,13.50089867;stroke-dashoffset:0;stroke-opacity:1"/><circle style="opacity:1;fill:#fff;fill-opacity:1;fill-rule:nonzero;stroke:none;stroke-width:8;stroke-linecap:round;stroke-linejoin:round;stroke-miterlimit:4;stroke-dasharray:none;stroke-dashoffset:0;stroke-opacity:1" id="circle8669" cx="202.214" cy="808.121" r="8.032"/><circle style="opacity:1;fill:#000037;fill-opacity:1;fill-rule:nonzero;stroke:none;stroke-width:8;stroke-linecap:round;stroke-linejoin:round;stroke-miterlimit:4;stroke-dasharray:none;stroke-dashoffset:0;stroke-opacity:1" id="circle8671" cx="202.214" cy="808.121" r="3.668"/><circle style="opacity:1;fill:#fff;fill-opacity:1;fill-rule:nonzero;stroke:none;stroke-width:8;stroke-linecap:round;stroke-linejoin:round;stroke-miterlimit:4;stroke-dasharray:none;stroke-dashoffset:0;stroke-opacity:1" id="circle8677" cx="202.214" cy="896.621" r="46.095"/><circle style="opacity:1;fill:#000037;fill-opacity:1;fill-rule:nonzero;stroke:none;stroke-width:8;stroke-linecap:round;stroke-linejoin:round;stroke-miterlimit:4;stroke-dasharray:none;stroke-dashoffset:0;stroke-opacity:1" id="circle8679" cx="202.214" cy="896.621" r="39.693"/><path id="path8681" d="m 217.57942,-897.99304 a 21.547712,21.547714 0 0 1 -21.14261,21.5439 21.547712,21.547714 0 0 1 -21.93758,-20.73383 21.547712,21.547714 0 0 1 20.31773,-22.32352 21.547712,21.547714 0 0 1 22.70155,19.89445" transform="matrix(0.99997625,-0.00689127,-0.00689127,-0.99997625,0,0)" style="opacity:1;fill:none;fill-opacity:.29670332;fill-rule:nonzero;stroke:#fff;stroke-width:6.75044918;stroke-linecap:round;stroke-linejoin:round;stroke-miterlimit:4;stroke-dasharray:13.50089867,13.50089867;stroke-dashoffset:0;stroke-opacity:1"/><circle style="opacity:1;fill:#fff;fill-opacity:1;fill-rule:nonzero;stroke:none;stroke-width:8;stroke-linecap:round;stroke-linejoin:round;stroke-miterlimit:4;stroke-dasharray:none;stroke-dashoffset:0;stroke-opacity:1" id="circle8683" cx="202.214" cy="896.621" r="8.032"/><circle style="opacity:1;fill:#000037;fill-opacity:1;fill-rule:nonzero;stroke:none;stroke-width:8;stroke-linecap:round;stroke-linejoin:round;stroke-miterlimit:4;stroke-dasharray:none;stroke-dashoffset:0;stroke-opacity:1" id="circle8685" cx="202.214" cy="896.621" r="3.668"/><circle id="circle8691" cx="202.214" cy="986.621" r="46.095" style="opacity:1;fill:#fff;fill-opacity:1;fill-rule:nonzero;stroke:none;stroke-width:8;stroke-linecap:round;stroke-linejoin:round;stroke-miterlimit:4;stroke-dasharray:none;stroke-dashoffset:0;stroke-opacity:1"/><circle id="circle8693" cx="202.214" cy="986.621" r="39.693" style="opacity:1;fill:#000037;fill-opacity:1;fill-rule:nonzero;stroke:none;stroke-width:8;stroke-linecap:round;stroke-linejoin:round;stroke-miterlimit:4;stroke-dasharray:none;stroke-dashoffset:0;stroke-opacity:1"/><path style="opacity:1;fill:none;fill-opacity:.29670332;fill-rule:nonzero;stroke:#fff;stroke-width:6.75044918;stroke-linecap:round;stroke-linejoin:round;stroke-miterlimit:4;stroke-dasharray:13.50089867,13.50089867;stroke-dashoffset:0;stroke-opacity:1" id="path8695" d="m 216.95921,-987.99091 a 21.547712,21.547714 0 0 1 -21.1426,21.54391 21.547712,21.547714 0 0 1 -21.93759,-20.73384 21.547712,21.547714 0 0 1 20.31773,-22.32356 21.547712,21.547714 0 0 1 22.70155,19.8945" transform="matrix(0.99997625,-0.00689127,-0.00689127,-0.99997625,0,0)"/><circle id="circle8697" cx="202.214" cy="986.621" r="8.032" style="opacity:1;fill:#fff;fill-opacity:1;fill-rule:nonzero;stroke:none;stroke-width:8;stroke-linecap:round;stroke-linejoin:round;stroke-miterlimit:4;stroke-dasharray:none;stroke-dashoffset:0;stroke-opacity:1"/><circle id="circle8699" cx="202.214" cy="986.621" r="3.668" style="opacity:1;fill:#000037;fill-opacity:1;fill-rule:nonzero;stroke:none;stroke-width:8;stroke-linecap:round;stroke-linejoin:round;stroke-miterlimit:4;stroke-dasharray:none;stroke-dashoffset:0;stroke-opacity:1"/></g></g></svg>