<svg
  width="199"
  height="84"
  viewBox="0 0 199 84"
  fill="none"
  xmlns="http://www.w3.org/2000/svg"
>
  <path
    fill-rule="evenodd"
    clip-rule="evenodd"
    d="M13.8834 0.239014H187.03L199 15.5603V70.2156L187.03 83.0745H13.8834L0 70.2156V15.5603L13.8834 0.239014Z"
    fill="url(#paint0_linear_1_190)"
  />
  <path
    d="M199 15.561V70.2163L187.03 83.0757H13.8838L0 70.2163V15.561L13.8838 0.239746H187.03L199 15.561ZM1.66797 16.2075V69.4839L14.5381 81.4048H186.305L197.333 69.5571V16.1382L186.216 1.90771H14.625L1.66797 16.2075Z"
    fill="url(#paint1_linear_1_190)"
  />
  <rect
    opacity="0.6"
    x="17.7314"
    y="79.1301"
    width="165.505"
    height="3.94455"
    fill="url(#paint2_linear_1_190)"
  />
  <rect
    opacity="0.6"
    x="17.7314"
    y="0.239014"
    width="165.505"
    height="3.94455"
    fill="url(#paint3_linear_1_190)"
  />
  <path
    fill-rule="evenodd"
    clip-rule="evenodd"
    d="M3.94059 77.1584V81.1029H0V77.1584H3.94059ZM198.999 77.1584V81.1029H195.058V77.1584H198.999ZM3.94059 0.239746V4.18429H0V0.239746H3.94059ZM198.999 0.239746V4.18429H195.058V0.239746H198.999Z"
    fill="#00D8FF"
  />
  <defs>
    <linearGradient
      id="paint0_linear_1_190"
      x1="-0.0125014"
      y1="0.241615"
      x2="-0.0103357"
      y2="83.0771"
      gradientUnits="userSpaceOnUse"
    >
      <stop stop-color="#0E5FFF" />
      <stop offset="0.539582" stop-color="#1C00FF" stop-opacity="0.317669" />
      <stop offset="1" stop-color="#0E5FFF" />
    </linearGradient>
    <linearGradient
      id="paint1_linear_1_190"
      x1="0"
      y1="86.8517"
      x2="199"
      y2="86.8517"
      gradientUnits="userSpaceOnUse"
    >
      <stop stop-color="#0E5FFF" />
      <stop offset="0.486884" stop-color="#66FFFF" />
      <stop offset="1" stop-color="#0E5FFF" />
    </linearGradient>
    <linearGradient
      id="paint2_linear_1_190"
      x1="18.9933"
      y1="83.0453"
      x2="182.033"
      y2="83.0453"
      gradientUnits="userSpaceOnUse"
    >
      <stop stop-color="#027AFF" stop-opacity="0.3" />
      <stop offset="0.501049" stop-color="#66FFFF" />
      <stop offset="1" stop-color="#027AFF" stop-opacity="0.3" />
    </linearGradient>
    <linearGradient
      id="paint3_linear_1_190"
      x1="18.9933"
      y1="4.15418"
      x2="182.033"
      y2="4.15418"
      gradientUnits="userSpaceOnUse"
    >
      <stop stop-color="#027AFF" stop-opacity="0.3" />
      <stop offset="0.501049" stop-color="#66FFFF" />
      <stop offset="1" stop-color="#027AFF" stop-opacity="0.3" />
    </linearGradient>
  </defs>
</svg>
