<svg xmlns="http://www.w3.org/2000/svg" width="199" height="84" fill="none" viewBox="0 0 199 84"><path fill="url(#paint0_linear_1_190)" fill-rule="evenodd" d="M13.8834 0.239014H187.03L199 15.5603V70.2156L187.03 83.0745H13.8834L0 70.2156V15.5603L13.8834 0.239014Z" clip-rule="evenodd"/><path fill="url(#paint1_linear_1_190)" d="M199 15.561V70.2163L187.03 83.0757H13.8838L0 70.2163V15.561L13.8838 0.239746H187.03L199 15.561ZM1.66797 16.2075V69.4839L14.5381 81.4048H186.305L197.333 69.5571V16.1382L186.216 1.90771H14.625L1.66797 16.2075Z"/><rect width="165.505" height="3.945" x="17.731" y="79.13" fill="url(#paint2_linear_1_190)" opacity=".6"/><rect width="165.505" height="3.945" x="17.731" y=".239" fill="url(#paint3_linear_1_190)" opacity=".6"/><path fill="#00D8FF" fill-rule="evenodd" d="M3.94059 77.1584V81.1029H0V77.1584H3.94059ZM198.999 77.1584V81.1029H195.058V77.1584H198.999ZM3.94059 0.239746V4.18429H0V0.239746H3.94059ZM198.999 0.239746V4.18429H195.058V0.239746H198.999Z" clip-rule="evenodd"/><defs><linearGradient id="paint0_linear_1_190" x1="-.013" x2="-.01" y1=".242" y2="83.077" gradientUnits="userSpaceOnUse"><stop stop-color="#0E5FFF"/><stop offset=".54" stop-color="#1C00FF" stop-opacity=".318"/><stop offset="1" stop-color="#0E5FFF"/></linearGradient><linearGradient id="paint1_linear_1_190" x1="0" x2="199" y1="86.852" y2="86.852" gradientUnits="userSpaceOnUse"><stop stop-color="#0E5FFF"/><stop offset=".487" stop-color="#6FF"/><stop offset="1" stop-color="#0E5FFF"/></linearGradient><linearGradient id="paint2_linear_1_190" x1="18.993" x2="182.033" y1="83.045" y2="83.045" gradientUnits="userSpaceOnUse"><stop stop-color="#027AFF" stop-opacity=".3"/><stop offset=".501" stop-color="#6FF"/><stop offset="1" stop-color="#027AFF" stop-opacity=".3"/></linearGradient><linearGradient id="paint3_linear_1_190" x1="18.993" x2="182.033" y1="4.154" y2="4.154" gradientUnits="userSpaceOnUse"><stop stop-color="#027AFF" stop-opacity=".3"/><stop offset=".501" stop-color="#6FF"/><stop offset="1" stop-color="#027AFF" stop-opacity=".3"/></linearGradient></defs></svg>