<svg xmlns="http://www.w3.org/2000/svg" width="109" height="81" fill="none" viewBox="0 0 109 81"><g transform="translate(0, -25)"><path fill="url(#paint0_linear_1_163)" d="M56.6143 43.4027C57.3158 43.4122 58.0146 43.426 58.709 43.4447L60.7812 43.515L61.8076 43.5599L63.8438 43.6703L65.8535 43.807L67.8369 43.9691L68.8174 44.0599L70.7559 44.2601L72.6631 44.4847L73.6055 44.6058L75.9229 44.9349L78.1846 45.2992L79.9531 45.6166L81.6826 45.9554L83.3721 46.3158C85.319 46.7484 87.1809 47.2239 88.9473 47.7377L90.4375 48.1869L91.8799 48.6556C92.3523 48.8147 92.8169 48.977 93.2725 49.142L94.6133 49.6449C95.0514 49.8156 95.4811 49.9892 95.9014 50.1654L97.1348 50.7025C104.17 53.8804 108.356 57.8663 108.356 62.1937C108.356 66.5213 104.17 70.5079 97.1348 73.6859L95.9014 74.223C95.4811 74.3992 95.0514 74.5719 94.6133 74.7426L93.2725 75.2465C92.8169 75.4114 92.3523 75.5737 91.8799 75.7328L90.4375 76.2006L88.9473 76.6508C87.4333 77.0911 85.849 77.5031 84.2012 77.8842L82.5322 78.2552L81.6826 78.432L79.9531 78.7719L78.1846 79.0883L76.3799 79.3832L74.0732 79.7191L71.7139 80.0189L70.7559 80.1283L68.8174 80.3285L67.8369 80.4193L65.8535 80.5814L63.8438 80.7181L61.8076 80.8285L60.7812 80.8734L58.709 80.9437C57.6673 80.9718 56.617 80.9893 55.5596 80.9965L54.5 81.0004C53.0836 81.0004 51.6799 80.9812 50.291 80.9437L48.2188 80.8734L47.1924 80.8285L45.1562 80.7181L43.1465 80.5814L41.1631 80.4193L40.1826 80.3285L38.2441 80.1283L36.3369 79.9037L35.3945 79.7826L33.0771 79.4535L30.8154 79.0883L29.0469 78.7719L27.3174 78.432L25.6279 78.0717C23.6811 77.6391 21.819 77.1645 20.0527 76.6508L18.5625 76.2006L17.1201 75.7328C16.6477 75.5737 16.1831 75.4114 15.7275 75.2465L14.3867 74.7426C13.9486 74.5719 13.5189 74.3992 13.0986 74.223L11.8652 73.6859C4.82974 70.5079 0.643555 66.5213 0.643555 62.1937C0.643751 57.8663 4.82996 53.8804 11.8652 50.7025L13.0986 50.1654C13.5189 49.9892 13.9486 49.8156 14.3867 49.6449L15.7275 49.142C16.1831 48.977 16.6477 48.8147 17.1201 48.6556L18.5625 48.1869L20.0527 47.7377C21.5667 47.2973 23.151 46.8854 24.7988 46.5043L26.4678 46.1332L27.3174 45.9554L29.0469 45.6166L30.8154 45.2992L32.6201 45.0043L34.9268 44.6683L37.2861 44.3695L38.2441 44.2601L40.1826 44.0599L41.1631 43.9691L43.1465 43.807L45.1562 43.6703L47.1924 43.5599L48.2188 43.515L50.291 43.4447C50.9853 43.426 51.6834 43.4122 52.3848 43.4027L54.5 43.3881L56.6143 43.4027ZM54.5 51.1273C40.8415 51.1273 28.1224 53.0059 18.9648 56.2035C16.7196 56.9875 14.8475 57.7955 13.334 58.557L12.3779 59.057L11.5273 59.5394C11.3942 59.618 11.2651 59.6953 11.1406 59.7719L10.4453 60.2181L10.1357 60.4301L9.59375 60.8304C8.77483 61.468 8.37534 61.9541 8.375 62.1937C8.375 62.4332 8.77449 62.9201 9.59375 63.558L10.1357 63.9574L10.4453 64.1703L11.1406 64.6166L11.5273 64.849L12.3779 65.3314L13.334 65.8314C14.8475 66.593 16.7196 67.4 18.9648 68.184C28.1224 71.3816 40.8414 73.2601 54.5 73.2601C68.1586 73.2601 80.8776 71.3816 90.0352 68.184C92.2804 67.4 94.1525 66.593 95.666 65.8314L96.6221 65.3314L97.4727 64.849C97.6057 64.7705 97.7349 64.6931 97.8594 64.6166L98.5547 64.1703L98.8643 63.9574L99.4062 63.558C100.226 62.9201 100.625 62.4332 100.625 62.1937C100.625 61.9541 100.225 61.468 99.4062 60.8304L98.8643 60.4301L98.5547 60.2181L97.8594 59.7719L97.4727 59.5394L96.6221 59.057L95.666 58.557C94.1525 57.7955 92.2804 56.9875 90.0352 56.2035C80.8776 53.0059 68.1585 51.1273 54.5 51.1273Z"/><g filter="url(#filter0_i_1_163)"><path fill="url(#paint1_linear_1_163)" fill-rule="evenodd" d="M53.2476 13.9419L53.2476 73.4776L90.8218 1.15687L89.6369 0.76123L53.2476 13.9419Z" clip-rule="evenodd"/></g><g filter="url(#filter1_i_1_163)"><path fill="url(#paint2_linear_1_163)" fill-rule="evenodd" d="M53.2476 13.6162L53.2476 73.4776L15.6733 0.76123L53.2476 13.6162Z" clip-rule="evenodd"/></g><defs><filter id="filter0_i_1_163" width="37.574" height="74.716" x="53.248" y=".761" color-interpolation-filters="sRGB" filterUnits="userSpaceOnUse"><feFlood flood-opacity="0" result="BackgroundImageFix"/><feBlend in="SourceGraphic" in2="BackgroundImageFix" mode="normal" result="shape"/><feColorMatrix in="SourceAlpha" result="hardAlpha" type="matrix" values="0 0 0 0 0 0 0 0 0 0 0 0 0 0 0 0 0 0 127 0"/><feOffset dy="2"/><feGaussianBlur stdDeviation="1"/><feComposite in2="hardAlpha" k2="-1" k3="1" operator="arithmetic"/><feColorMatrix type="matrix" values="0 0 0 0 0.227451 0 0 0 0 0.780392 0 0 0 0 0.992157 0 0 0 1 0"/><feBlend in2="shape" mode="normal" result="effect1_innerShadow_1_163"/></filter><filter id="filter1_i_1_163" width="37.574" height="74.716" x="15.673" y=".761" color-interpolation-filters="sRGB" filterUnits="userSpaceOnUse"><feFlood flood-opacity="0" result="BackgroundImageFix"/><feBlend in="SourceGraphic" in2="BackgroundImageFix" mode="normal" result="shape"/><feColorMatrix in="SourceAlpha" result="hardAlpha" type="matrix" values="0 0 0 0 0 0 0 0 0 0 0 0 0 0 0 0 0 0 127 0"/><feOffset dy="2"/><feGaussianBlur stdDeviation="1"/><feComposite in2="hardAlpha" k2="-1" k3="1" operator="arithmetic"/><feColorMatrix type="matrix" values="0 0 0 0 0.227451 0 0 0 0 0.780392 0 0 0 0 0.992157 0 0 0 1 0"/><feBlend in2="shape" mode="normal" result="effect1_innerShadow_1_163"/></filter><linearGradient id="paint0_linear_1_163" x1=".644" x2=".644" y1="43.388" y2="81" gradientUnits="userSpaceOnUse"><stop stop-color="#31A9FC" stop-opacity=".221"/><stop offset="1" stop-color="#6FF"/></linearGradient><linearGradient id="paint1_linear_1_163" x1="60.847" x2="33.223" y1="-10.614" y2="16.552" gradientUnits="userSpaceOnUse"><stop stop-color="#0D21F7"/><stop offset="1" stop-color="#49FDFF"/></linearGradient><linearGradient id="paint2_linear_1_163" x1="45.648" x2="73.272" y1="-10.614" y2="16.552" gradientUnits="userSpaceOnUse"><stop stop-color="#0D21F7"/><stop offset="1" stop-color="#49FDFF"/></linearGradient></defs></g></svg>