<svg xmlns="http://www.w3.org/2000/svg" role="img" viewBox="0 0 252.56 378.66"><title>M.League</title><g class="p-about__logoMark"><path d="M115.17,319.75a.82.82,0,0,1-1.25.7L47.24,279.52C17,260,0,234.47,0,195.91v-84.5a.82.82,0,0,1,1.23-.71L33.1,129.08a1.12,1.12,0,0,1,.56,1V193.8c0,30.33,13.75,43.14,31.37,56.6l49.6,30.23a1.14,1.14,0,0,1,.54,1Z" style="fill:#008842"/><path d="M113.81,251.7l-33.6-20.15a1.12,1.12,0,0,1-.55-1V144.31a25.31,25.31,0,0,1,11.8-21.41l47.13-31.14a.6.6,0,0,0-.33-1.09l-36.06.11a.83.83,0,0,1-.83-.83l0-22.24a.6.6,0,0,0-.94-.49l-62,42.43a1.11,1.11,0,0,1-1.19,0L6.49,92.19a.84.84,0,0,1-.07-1.42L133.67.28A1.49,1.49,0,0,1,136,1.49V59.68a.83.83,0,0,0,.83.83l108.48,0a1.19,1.19,0,0,1,.67,2.17l-120.8,81.09c-6.94,4.72-10.35,12.56-10.35,20.95v86.35A.69.69,0,0,1,113.81,251.7Z" style="fill:#d7000f"/><path d="M203.58,188.39l.1,27.74a.84.84,0,0,0,1.29.7l16-10.41a.63.63,0,0,1,1,.59c-3.4,30.67-42.24,49.25-48.62,52.1a.62.62,0,0,1-.88-.57V193.28a19,19,0,0,1,8.89-16.09l70.59-45.06a1.15,1.15,0,0,0,.52-1l0-38.13a.83.83,0,0,0-1.27-.7L149.62,155.92a25.34,25.34,0,0,0-12,21.53V320.09a.63.63,0,0,0,1,.53l68.8-42.76c26.72-18,45.17-41.69,45.17-80.87V159.4a.84.84,0,0,0-1.27-.71l-47.31,29A.83.83,0,0,0,203.58,188.39Z" style="fill:#231815"/></g><g class="p-about__logoType"><rect width="6.19" height="6.19" x="47.41" y="372.47" style="fill:#231815"/><path d="M69.65,350.25H63.46v22.53a5.79,5.79,0,0,0,1.7,4.18,5.71,5.71,0,0,0,4.17,1.7h17v-6.19H69.65Z" style="fill:#231815"/><path d="M94.1,372.78A5.79,5.79,0,0,0,95.8,377a5.73,5.73,0,0,0,4.17,1.7h17v-6.19H100.29v-4.92H115.2v-6.19H100.29v-4.92H117v-6.19H94.06Z" style="fill:#231815"/><path d="M144.18,350.25h-17l0,28.21v.2h6.19V370h10.47v8.71h6.19V356.12a5.63,5.63,0,0,0-1.74-4.12A5.55,5.55,0,0,0,144.18,350.25Zm-.32,6.19v7.32H133.39v-7.32Z" style="fill:#231815"/><path d="M159.64,372.78a5.79,5.79,0,0,0,1.7,4.18,5.71,5.71,0,0,0,4.17,1.7h11.1a5.71,5.71,0,0,0,4.13-1.7,5.62,5.62,0,0,0,1.75-4.18V361.36H170.74v6.19h5.56v4.92H165.83v-16h16.66v-6.19h-22.9Z" style="fill:#231815"/><path d="M247.09,356.44v-6.19H224.2l0,22.53a5.79,5.79,0,0,0,1.7,4.18,5.73,5.73,0,0,0,4.17,1.7h17v-6.19H230.43v-4.92h14.91v-6.19H230.43v-4.92Z" style="fill:#231815"/><path d="M208.58,372.47H198.11V350.25h-6.19v22.53a5.79,5.79,0,0,0,1.7,4.18,5.71,5.71,0,0,0,4.17,1.7H208.9a5.7,5.7,0,0,0,4.17-1.71,5.77,5.77,0,0,0,1.7-4.17V350.25h-6.19Z" style="fill:#231815"/><polygon points="32.03 350.25 23.47 361.42 14.91 350.25 8.72 350.25 8.72 378.65 15 378.65 15 360.23 23.47 369.99 31.94 360.23 31.94 378.65 38.21 378.65 38.21 350.25 32.03 350.25" style="fill:#231815"/></g></svg>